# xmcd CD database file
#
# Track frame offsets:
#	150
#	14907
#	37395
#	48822
#	62275
#	77510
#	118690
#	140110
#	162545
#	170295
#	192355
#	210595
#	227542
#	251670
#	276150
#	301367
#
# Disc length: 4278 seconds
#
# Revision: 0
# Processed by: cddbd v1.5.2PL0 Copyright (c) Steve Scherf et al.
# Submitted via: CdAid (MTCDDB.DLL V2003.12.21)
#
DISCID=e310b410
DTITLE=Various Artist - SUM Records Vol. 10
DYEAR=2003
DGENRE=Country
TTITLE0=Reaches - Set It Off
TTITLE1=Laika - Coming Down Glass
TTITLE2=Dashboard Confessional - Saints andSailors
TTITLE3=Gordon Gano with P.J.Harvey - Hitting The Ground
TTITLE4=His Name Is Alive - Teardrops
TTITLE5=Underworld - Two Months Off
TTITLE6=Saint Etienne - Action
TTITLE7=Aimee Mann - Invisible Ink
TTITLE8=Pixies - Rock A My Soul
TTITLE9=Badly Drawn Boy - You Were Right
TTITLE10=Belly - Broken (Single B Side)
TTITLE11=Andy Votel - Komedahead
TTITLE12=Tom Jones - Younger Days
TTITLE13=Solomon Burke - None Of Us Are Free
TTITLE14=Sinéad O' Connor - Her Mantle So Green
TTITLE15=Joan Osborne - How Sweet It Is
EXTD=ID3G:   2 YEAR: 2003
EXTT0=
EXTT1=
EXTT2=
EXTT3=
EXTT4=
EXTT5=
EXTT6=
EXTT7=
EXTT8=
EXTT9=
EXTT10=
EXTT11=
EXTT12=
EXTT13=
EXTT14=
EXTT15=
PLAYORDER=
